<svg height="2638" width="720" xmlns="http://www.w3.org/2000/svg">
<rect height="2638" fill="#555" width="720"></rect>
<text fill="#7f7" font-family="Courier New" font-size="12" xml:space="preserve">
<tspan x="10" y="26">7 megabytes installed</tspan>
<tspan x="10" y="42"></tspan>
<tspan x="10" y="58">node_modules</tspan>
<tspan x="10" y="74">├─┬ gulp-typescript@3.1.6 </tspan>
<tspan x="10" y="90">│ ├─┬ gulp-util@3.0.8 </tspan>
<tspan x="10" y="106">│ │ ├── array-differ@1.0.0 </tspan>
<tspan x="10" y="122">│ │ ├── array-uniq@1.0.3 </tspan>
<tspan x="10" y="138">│ │ ├── beeper@1.1.1 </tspan>
<tspan x="10" y="154">│ │ ├─┬ chalk@1.1.3 </tspan>
<tspan x="10" y="170">│ │ │ ├── ansi-styles@2.2.1 </tspan>
<tspan x="10" y="186">│ │ │ ├── escape-string-regexp@1.0.5 </tspan>
<tspan x="10" y="202">│ │ │ ├─┬ has-ansi@2.0.0 </tspan>
<tspan x="10" y="218">│ │ │ │ └── ansi-regex@2.1.1 </tspan>
<tspan x="10" y="234">│ │ │ ├── strip-ansi@3.0.1 </tspan>
<tspan x="10" y="250">│ │ │ └── supports-color@2.0.0 </tspan>
<tspan x="10" y="266">│ │ ├── dateformat@2.0.0 </tspan>
<tspan x="10" y="282">│ │ ├─┬ fancy-log@1.3.0 </tspan>
<tspan x="10" y="298">│ │ │ └── time-stamp@1.0.1 </tspan>
<tspan x="10" y="314">│ │ ├─┬ gulplog@1.0.0 </tspan>
<tspan x="10" y="330">│ │ │ └── glogg@1.0.0 </tspan>
<tspan x="10" y="346">│ │ ├─┬ has-gulplog@0.1.0 </tspan>
<tspan x="10" y="362">│ │ │ └── sparkles@1.0.0 </tspan>
<tspan x="10" y="378">│ │ ├── lodash._reescape@3.0.0 </tspan>
<tspan x="10" y="394">│ │ ├── lodash._reevaluate@3.0.0 </tspan>
<tspan x="10" y="410">│ │ ├── lodash._reinterpolate@3.0.0 </tspan>
<tspan x="10" y="426">│ │ ├─┬ lodash.template@3.6.2 </tspan>
<tspan x="10" y="442">│ │ │ ├── lodash._basecopy@3.0.1 </tspan>
<tspan x="10" y="458">│ │ │ ├── lodash._basetostring@3.0.1 </tspan>
<tspan x="10" y="474">│ │ │ ├── lodash._basevalues@3.0.0 </tspan>
<tspan x="10" y="490">│ │ │ ├── lodash._isiterateecall@3.0.9 </tspan>
<tspan x="10" y="506">│ │ │ ├─┬ lodash.escape@3.2.0 </tspan>
<tspan x="10" y="522">│ │ │ │ └── lodash._root@3.0.1 </tspan>
<tspan x="10" y="538">│ │ │ ├─┬ lodash.keys@3.1.2 </tspan>
<tspan x="10" y="554">│ │ │ │ ├── lodash._getnative@3.9.1 </tspan>
<tspan x="10" y="570">│ │ │ │ ├── lodash.isarguments@3.1.0 </tspan>
<tspan x="10" y="586">│ │ │ │ └── lodash.isarray@3.0.4 </tspan>
<tspan x="10" y="602">│ │ │ ├── lodash.restparam@3.6.1 </tspan>
<tspan x="10" y="618">│ │ │ └── lodash.templatesettings@3.1.1 </tspan>
<tspan x="10" y="634">│ │ ├── minimist@1.2.0 </tspan>
<tspan x="10" y="650">│ │ ├─┬ multipipe@0.1.2 </tspan>
<tspan x="10" y="666">│ │ │ └─┬ duplexer2@0.0.2 </tspan>
<tspan x="10" y="682">│ │ │   └─┬ readable-stream@1.1.14 </tspan>
<tspan x="10" y="698">│ │ │     ├── isarray@0.0.1 </tspan>
<tspan x="10" y="714">│ │ │     └── string_decoder@0.10.31 </tspan>
<tspan x="10" y="730">│ │ ├── object-assign@3.0.0 </tspan>
<tspan x="10" y="746">│ │ ├── replace-ext@0.0.1 </tspan>
<tspan x="10" y="762">│ │ └─┬ vinyl@0.5.3 </tspan>
<tspan x="10" y="778">│ │   ├── clone@1.0.2 </tspan>
<tspan x="10" y="794">│ │   └── clone-stats@0.0.1 </tspan>
<tspan x="10" y="810">│ ├── source-map@0.5.6 </tspan>
<tspan x="10" y="826">│ ├─┬ through2@2.0.3 </tspan>
<tspan x="10" y="842">│ │ ├─┬ readable-stream@2.2.9 </tspan>
<tspan x="10" y="858">│ │ │ ├── buffer-shims@1.0.0 </tspan>
<tspan x="10" y="874">│ │ │ ├── core-util-is@1.0.2 </tspan>
<tspan x="10" y="890">│ │ │ ├── inherits@2.0.3 </tspan>
<tspan x="10" y="906">│ │ │ ├── isarray@1.0.0 </tspan>
<tspan x="10" y="922">│ │ │ ├── process-nextick-args@1.0.7 </tspan>
<tspan x="10" y="938">│ │ │ ├── string_decoder@1.0.0 </tspan>
<tspan x="10" y="954">│ │ │ └── util-deprecate@1.0.2 </tspan>
<tspan x="10" y="970">│ │ └── xtend@4.0.1 </tspan>
<tspan x="10" y="986">│ └─┬ vinyl-fs@2.4.4 </tspan>
<tspan x="10" y="1002">│   ├─┬ duplexify@3.5.0 </tspan>
<tspan x="10" y="1018">│   │ ├─┬ end-of-stream@1.0.0 </tspan>
<tspan x="10" y="1034">│   │ │ └─┬ once@1.3.3 </tspan>
<tspan x="10" y="1050">│   │ │   └── wrappy@1.0.2 </tspan>
<tspan x="10" y="1066">│   │ ├─┬ readable-stream@2.2.9 </tspan>
<tspan x="10" y="1082">│   │ │ ├── isarray@1.0.0 </tspan>
<tspan x="10" y="1098">│   │ │ └── string_decoder@1.0.0 </tspan>
<tspan x="10" y="1114">│   │ └── stream-shift@1.0.0 </tspan>
<tspan x="10" y="1130">│   ├─┬ glob-stream@5.3.5 </tspan>
<tspan x="10" y="1146">│   │ ├── extend@3.0.0 </tspan>
<tspan x="10" y="1162">│   │ ├─┬ glob@5.0.15 </tspan>
<tspan x="10" y="1178">│   │ │ ├── inflight@1.0.6 </tspan>
<tspan x="10" y="1194">│   │ │ ├─┬ minimatch@3.0.3 </tspan>
<tspan x="10" y="1210">│   │ │ │ └─┬ brace-expansion@1.1.7 </tspan>
<tspan x="10" y="1226">│   │ │ │   ├── balanced-match@0.4.2 </tspan>
<tspan x="10" y="1242">│   │ │ │   └── concat-map@0.0.1 </tspan>
<tspan x="10" y="1258">│   │ │ └── path-is-absolute@1.0.1 </tspan>
<tspan x="10" y="1274">│   │ ├─┬ glob-parent@3.1.0 </tspan>
<tspan x="10" y="1290">│   │ │ ├─┬ is-glob@3.1.0 </tspan>
<tspan x="10" y="1306">│   │ │ │ └── is-extglob@2.1.1 </tspan>
<tspan x="10" y="1322">│   │ │ └── path-dirname@1.0.2 </tspan>
<tspan x="10" y="1338">│   │ ├─┬ micromatch@2.3.11 </tspan>
<tspan x="10" y="1354">│   │ │ ├─┬ arr-diff@2.0.0 </tspan>
<tspan x="10" y="1370">│   │ │ │ └── arr-flatten@1.0.3 </tspan>
<tspan x="10" y="1386">│   │ │ ├── array-unique@0.2.1 </tspan>
<tspan x="10" y="1402">│   │ │ ├─┬ braces@1.8.5 </tspan>
<tspan x="10" y="1418">│   │ │ │ ├─┬ expand-range@1.8.2 </tspan>
<tspan x="10" y="1434">│   │ │ │ │ └─┬ fill-range@2.2.3 </tspan>
<tspan x="10" y="1450">│   │ │ │ │   ├── is-number@2.1.0 </tspan>
<tspan x="10" y="1466">│   │ │ │ │   ├─┬ isobject@2.1.0 </tspan>
<tspan x="10" y="1482">│   │ │ │ │   │ └── isarray@1.0.0 </tspan>
<tspan x="10" y="1498">│   │ │ │ │   ├── randomatic@1.1.6 </tspan>
<tspan x="10" y="1514">│   │ │ │ │   └── repeat-string@1.6.1 </tspan>
<tspan x="10" y="1530">│   │ │ │ ├── preserve@0.2.0 </tspan>
<tspan x="10" y="1546">│   │ │ │ └── repeat-element@1.1.2 </tspan>
<tspan x="10" y="1562">│   │ │ ├─┬ expand-brackets@0.1.5 </tspan>
<tspan x="10" y="1578">│   │ │ │ └── is-posix-bracket@0.1.1 </tspan>
<tspan x="10" y="1594">│   │ │ ├─┬ extglob@0.3.2 </tspan>
<tspan x="10" y="1610">│   │ │ │ └── is-extglob@1.0.0 </tspan>
<tspan x="10" y="1626">│   │ │ ├── filename-regex@2.0.0 </tspan>
<tspan x="10" y="1642">│   │ │ ├── is-extglob@1.0.0 </tspan>
<tspan x="10" y="1658">│   │ │ ├── is-glob@2.0.1 </tspan>
<tspan x="10" y="1674">│   │ │ ├─┬ kind-of@3.1.0 </tspan>
<tspan x="10" y="1690">│   │ │ │ └── is-buffer@1.1.5 </tspan>
<tspan x="10" y="1706">│   │ │ ├─┬ normalize-path@2.1.1 </tspan>
<tspan x="10" y="1722">│   │ │ │ └── remove-trailing-separator@1.0.1 </tspan>
<tspan x="10" y="1738">│   │ │ ├─┬ object.omit@2.0.1 </tspan>
<tspan x="10" y="1754">│   │ │ │ ├─┬ for-own@0.1.5 </tspan>
<tspan x="10" y="1770">│   │ │ │ │ └── for-in@1.0.2 </tspan>
<tspan x="10" y="1786">│   │ │ │ └── is-extendable@0.1.1 </tspan>
<tspan x="10" y="1802">│   │ │ ├─┬ parse-glob@3.0.4 </tspan>
<tspan x="10" y="1818">│   │ │ │ ├─┬ glob-base@0.3.0 </tspan>
<tspan x="10" y="1834">│   │ │ │ │ ├── glob-parent@2.0.0 </tspan>
<tspan x="10" y="1850">│   │ │ │ │ └─┬ is-glob@2.0.1 </tspan>
<tspan x="10" y="1866">│   │ │ │ │   └── is-extglob@1.0.0 </tspan>
<tspan x="10" y="1882">│   │ │ │ ├── is-dotfile@1.0.2 </tspan>
<tspan x="10" y="1898">│   │ │ │ ├── is-extglob@1.0.0 </tspan>
<tspan x="10" y="1914">│   │ │ │ └── is-glob@2.0.1 </tspan>
<tspan x="10" y="1930">│   │ │ └─┬ regex-cache@0.4.3 </tspan>
<tspan x="10" y="1946">│   │ │   ├── is-equal-shallow@0.1.3 </tspan>
<tspan x="10" y="1962">│   │ │   └── is-primitive@2.0.0 </tspan>
<tspan x="10" y="1978">│   │ ├─┬ ordered-read-streams@0.3.0 </tspan>
<tspan x="10" y="1994">│   │ │ ├── is-stream@1.1.0 </tspan>
<tspan x="10" y="2010">│   │ │ └─┬ readable-stream@2.2.9 </tspan>
<tspan x="10" y="2026">│   │ │   ├── isarray@1.0.0 </tspan>
<tspan x="10" y="2042">│   │ │   └── string_decoder@1.0.0 </tspan>
<tspan x="10" y="2058">│   │ ├─┬ through2@0.6.5 </tspan>
<tspan x="10" y="2074">│   │ │ └── readable-stream@1.0.34 </tspan>
<tspan x="10" y="2090">│   │ ├─┬ to-absolute-glob@0.1.1 </tspan>
<tspan x="10" y="2106">│   │ │ └── extend-shallow@2.0.1 </tspan>
<tspan x="10" y="2122">│   │ └─┬ unique-stream@2.2.1 </tspan>
<tspan x="10" y="2138">│   │   └─┬ json-stable-stringify@1.0.1 </tspan>
<tspan x="10" y="2154">│   │     └── jsonify@0.0.0 </tspan>
<tspan x="10" y="2170">│   ├── graceful-fs@4.1.11 </tspan>
<tspan x="10" y="2186">│   ├─┬ gulp-sourcemaps@1.6.0 </tspan>
<tspan x="10" y="2202">│   │ ├── convert-source-map@1.5.0 </tspan>
<tspan x="10" y="2218">│   │ └── vinyl@1.2.0 </tspan>
<tspan x="10" y="2234">│   ├── is-valid-glob@0.3.0 </tspan>
<tspan x="10" y="2250">│   ├─┬ lazystream@1.0.0 </tspan>
<tspan x="10" y="2266">│   │ └─┬ readable-stream@2.2.9 </tspan>
<tspan x="10" y="2282">│   │   ├── isarray@1.0.0 </tspan>
<tspan x="10" y="2298">│   │   └── string_decoder@1.0.0 </tspan>
<tspan x="10" y="2314">│   ├── lodash.isequal@4.5.0 </tspan>
<tspan x="10" y="2330">│   ├─┬ merge-stream@1.0.1 </tspan>
<tspan x="10" y="2346">│   │ └─┬ readable-stream@2.2.9 </tspan>
<tspan x="10" y="2362">│   │   ├── isarray@1.0.0 </tspan>
<tspan x="10" y="2378">│   │   └── string_decoder@1.0.0 </tspan>
<tspan x="10" y="2394">│   ├─┬ mkdirp@0.5.1 </tspan>
<tspan x="10" y="2410">│   │ └── minimist@0.0.8 </tspan>
<tspan x="10" y="2426">│   ├── object-assign@4.1.1 </tspan>
<tspan x="10" y="2442">│   ├─┬ readable-stream@2.2.9 </tspan>
<tspan x="10" y="2458">│   │ ├── isarray@1.0.0 </tspan>
<tspan x="10" y="2474">│   │ └── string_decoder@1.0.0 </tspan>
<tspan x="10" y="2490">│   ├─┬ strip-bom@2.0.0 </tspan>
<tspan x="10" y="2506">│   │ └── is-utf8@0.2.1 </tspan>
<tspan x="10" y="2522">│   ├─┬ strip-bom-stream@1.0.0 </tspan>
<tspan x="10" y="2538">│   │ └── first-chunk-stream@1.0.0 </tspan>
<tspan x="10" y="2554">│   ├── through2-filter@2.0.0 </tspan>
<tspan x="10" y="2570">│   ├── vali-date@1.0.0 </tspan>
<tspan x="10" y="2586">│   └── vinyl@1.2.0 </tspan>
<tspan x="10" y="2602">└── UNMET PEER DEPENDENCY typescript@~2.0.3 || &gt;=2.0.0-dev || &gt;=2.1.0-dev || &gt;=2.2.0-dev || &gt;=2.\</tspan>
<tspan x="10" y="2618">3.0-dev</tspan>
</text>
</svg>
